<?xml version="1.0" encoding="UTF-8"?>
<svg id="Calque_1" xmlns="http://www.w3.org/2000/svg" version="1.1" viewBox="0 0 841.89 595.28">
  <!-- Generator: Adobe Illustrator 30.2.0, SVG Export Plug-In . SVG Version: 2.1.1 Build 105)  -->
  <defs>
    <style>
      .st0 {
        fill: #e84818;
      }

      .st1 {
        fill: #1d1d1b;
      }
    </style>
  </defs>
  <g>
    <path class="st1" d="M288.92,265.46c3.53-6.18,8.35-11,14.46-14.46,6.11-3.45,12.96-5.18,20.55-5.18,8.88,0,16.66,2.28,23.33,6.83,6.68,4.55,11.34,10.85,14,18.9h-18.33c-1.82-3.79-4.38-6.64-7.68-8.54-3.3-1.9-7.11-2.85-11.44-2.85-4.63,0-8.75,1.08-12.35,3.24-3.6,2.16-6.41,5.22-8.42,9.16-2.01,3.95-3.02,8.58-3.02,13.89s1,9.85,3.02,13.83c2.01,3.98,4.82,7.06,8.42,9.22,3.6,2.16,7.72,3.24,12.35,3.24,4.33,0,8.14-.97,11.44-2.9,3.3-1.94,5.86-4.8,7.68-8.59h18.33c-2.66,8.12-7.3,14.44-13.94,18.95-6.64,4.52-14.44,6.77-23.39,6.77-7.59,0-14.44-1.72-20.55-5.18-6.11-3.45-10.93-8.25-14.46-14.4-3.53-6.15-5.29-13.13-5.29-20.94s1.76-14.81,5.29-21Z"/>
    <path class="st1" d="M390.85,242.07v84.23h-15.94v-84.23h15.94Z"/>
    <path class="st1" d="M406.27,277.58c2.54-4.93,5.99-8.73,10.36-11.38,4.36-2.66,9.24-3.98,14.63-3.98,4.71,0,8.82.95,12.35,2.85,3.53,1.9,6.36,4.29,8.48,7.17v-8.99h16.05v63.06h-16.05v-9.22c-2.05,2.96-4.88,5.41-8.48,7.34-3.6,1.93-7.76,2.9-12.46,2.9-5.31,0-10.15-1.37-14.51-4.1-4.36-2.73-7.82-6.58-10.36-11.55-2.54-4.97-3.81-10.68-3.81-17.13s1.27-12.03,3.81-16.96ZM449.81,284.81c-1.52-2.77-3.57-4.89-6.15-6.37-2.58-1.48-5.35-2.22-8.31-2.22s-5.69.72-8.2,2.16c-2.5,1.44-4.54,3.55-6.09,6.32-1.56,2.77-2.33,6.05-2.33,9.85s.78,7.11,2.33,9.96c1.55,2.84,3.6,5.03,6.15,6.54,2.54,1.52,5.25,2.28,8.14,2.28s5.73-.74,8.31-2.22c2.58-1.48,4.63-3.6,6.15-6.37,1.52-2.77,2.28-6.09,2.28-9.96s-.76-7.19-2.28-9.96Z"/>
    <path class="st1" d="M507.69,265.17c3.3-1.9,7.08-2.84,11.33-2.84v16.73h-4.21c-5.01,0-8.78,1.18-11.33,3.53-2.54,2.35-3.81,6.45-3.81,12.29v31.42h-15.94v-63.06h15.94v9.79c2.05-3.34,4.72-5.96,8.02-7.85Z"/>
    <path class="st1" d="M530.79,253.05c-1.86-1.78-2.79-4-2.79-6.66s.93-4.87,2.79-6.66c1.86-1.78,4.19-2.67,7-2.67s5.14.89,7,2.67c1.86,1.78,2.79,4,2.79,6.66s-.93,4.88-2.79,6.66c-1.86,1.78-4.19,2.67-7,2.67s-5.14-.89-7-2.67ZM545.64,263.24v63.06h-15.94v-63.06h15.94Z"/>
    <path class="st1" d="M571.6,324.53c-4.1-1.86-7.34-4.38-9.73-7.57-2.39-3.19-3.7-6.71-3.93-10.58h16.05c.3,2.43,1.5,4.44,3.59,6.03,2.09,1.59,4.68,2.39,7.8,2.39s5.41-.61,7.11-1.82c1.71-1.21,2.56-2.77,2.56-4.67,0-2.05-1.04-3.58-3.13-4.61-2.09-1.02-5.41-2.14-9.96-3.36-4.71-1.14-8.56-2.31-11.55-3.53-3-1.21-5.58-3.07-7.74-5.58-2.16-2.5-3.24-5.88-3.24-10.13,0-3.49,1-6.68,3.02-9.56,2.01-2.88,4.89-5.16,8.65-6.83,3.76-1.67,8.18-2.5,13.26-2.5,7.51,0,13.51,1.88,17.98,5.63,4.48,3.76,6.94,8.82,7.4,15.2h-15.25c-.23-2.5-1.27-4.5-3.13-5.98-1.86-1.48-4.34-2.22-7.46-2.22-2.88,0-5.1.53-6.66,1.59-1.56,1.06-2.33,2.54-2.33,4.44,0,2.13,1.06,3.74,3.19,4.84,2.12,1.1,5.42,2.22,9.9,3.36,4.55,1.14,8.31,2.32,11.27,3.53,2.96,1.21,5.52,3.09,7.68,5.63,2.16,2.54,3.28,5.9,3.36,10.07,0,3.64-1.01,6.91-3.02,9.79-2.01,2.88-4.89,5.14-8.65,6.77-3.76,1.63-8.14,2.45-13.15,2.45s-9.79-.93-13.89-2.79Z"/>
    <path class="st1" d="M624.47,253.05c-1.86-1.78-2.79-4-2.79-6.66s.93-4.87,2.79-6.66c1.86-1.78,4.19-2.67,7-2.67s5.14.89,7,2.67c1.86,1.78,2.79,4,2.79,6.66s-.93,4.88-2.79,6.66c-1.86,1.78-4.19,2.67-7,2.67s-5.14-.89-7-2.67ZM639.32,263.24v63.06h-15.94v-63.06h15.94Z"/>
    <path class="st1" d="M689.86,326.3l-12.98-19.58-11.5,19.58h-17.07l20.6-31.64-20.83-31.42h17.98l12.86,19.46,11.61-19.46h17.07l-20.72,31.42,20.94,31.64h-17.98Z"/>
  </g>
  <path class="st0" d="M252.42,286.36c-.33-.57-.68-1.1-1.03-1.65-1.25-1.92-2.6-3.83-4.09-5.59-4.76-5.85-10.65-10.9-17.57-14.75-.86-.48-1.74-.95-2.66-1.41-3.57-1.78-7.26-3.21-10.96-4.21l-.02.02c-3.63-1.03-7.27-1.69-10.92-1.98-5.26-.49-10.48-.26-15.59.64-.73.07.24-2.31.68-2.75,3.1-3.11,6.6-5.75,10.39-7.84,5.15-2.84,10.79-4.71,16.66-5.48,4.86-.66,9.86-.55,14.81.37-.31-3.59-2.86-14.04-3.22-15.21-2.09-.22-4.2-.27-6.3-.22-.66,0-1.32,0-1.96.05-2.42.09-4.84.37-7.27.79-7.53,1.26-14.82,3.9-21.36,7.81-4.21,2.49-8.17,5.52-11.71,9-2.79,2.71-5.31,5.72-7.55,9-1.61,2.35-3.1,4.84-4.4,7.46-1.04,2.07-1.94,4.12-2.68,6.27-.05.04-.05.13-.09.18-.09.27-.22.6-.31.88-.07-.16-.15-.37-.18-.55-.09-.2-.16-.4-.22-.6-1.59-4.71-2.46-9.73-2.44-14.81-.04-5.92,1.08-11.95,3.41-17.7.42-1.1.93-2.2,1.47-3.3,1.7-3.41,3.79-6.54,6.14-9.34-3.28-1.59-13.54-4.65-14.75-4.84-1.17,1.67-2.25,3.43-3.24,5.26-.31.55-.64,1.12-.93,1.7l-.35.7c-.99,2-1.89,4.05-2.62,6.1-2.77,7.48-3.98,15.17-3.77,22.81.09,4.93.82,9.8,2.13,14.53.9,3.32,2.07,6.6,3.54,9.75,2.16,4.71,4.91,9.16,8.23,13.17.13.18.22.31.37.44.59.73,1.17,1.43,1.83,2.09-.59-.09-1.14-.2-1.7-.27-.57-.11-1.15-.24-1.74-.37-3.57-.81-7.09-2.05-10.5-3.76-1.12-.55-2.22-1.14-3.28-1.83-5.24-3.1-9.64-7.13-13.16-11.75-2.99-3.94-5.31-8.34-6.93-12.99-2.97,1.94-10.88,9.22-11.69,10.17.9,2,1.91,3.98,3.04,5.81.31.6.68,1.19,1.06,1.76,1.23,1.96,2.57,3.81,4.05,5.61,4.78,5.94,10.72,11.03,17.7,14.95.88.48,1.74.95,2.66,1.41,3.57,1.78,7.26,3.19,10.96,4.21l.02-.04c3.63,1.03,7.33,1.69,11.01,2,5.22.46,10.44.24,15.56-.66.55-.06-.46,2.55-1.01,3.08-3.02,2.99-6.39,5.5-10.06,7.51-5.17,2.88-10.85,4.76-16.71,5.5-4.86.64-9.82.55-14.75-.38.27,3.57,2.82,14.09,3.24,15.21,2.11.22,4.2.29,6.32.24.66,0,1.3,0,1.94-.06,2.44-.11,4.84-.35,7.24-.79,7.53-1.25,14.82-3.88,21.4-7.82,4.23-2.47,8.15-5.52,11.69-9.01,2.71-2.66,5.2-5.59,7.44-8.78,1.65-2.42,3.17-4.98,4.51-7.68,1.01-2,1.91-4.05,2.64-6.1-.16,0-.29.02-.4-.04.18-.11.37-.22.51-.35.07-.05.09-.13.09-.2.02.06.05.07.07.11l.18.55c1.61,4.73,2.44,9.73,2.46,14.81.02,5.83-1.06,11.76-3.33,17.43-.44,1.21-.99,2.38-1.58,3.55-1.65,3.32-3.65,6.38-5.96,9.12,3.3,1.59,13.52,4.67,14.68,4.89,1.15-1.65,2.22-3.37,3.19-5.19.31-.53.62-1.08.92-1.67l.31-.62c1.03-2.07,1.92-4.12,2.66-6.25,2.73-7.4,3.96-15.12,3.74-22.68-.13-4.93-.86-9.8-2.14-14.53-.84-3.24-2.03-6.45-3.43-9.56-2.13-4.71-4.87-9.14-8.21-13.17l-.02-.04-2.44-2.82c.77.09,1.54.2,2.31.37.55.07,1.08.22,1.65.33,3.57.79,7.07,2.05,10.5,3.76,1.12.55,2.22,1.14,3.26,1.81,5.19,3.08,9.58,7.07,13.1,11.64,3.02,3.96,5.33,8.36,6.96,13.01,2.9-1.96,10.81-9.33,11.65-10.3-.92-2.02-1.96-4.01-3.11-5.9ZM193.93,285.97c-.15.4-.33.81-.53,1.23-.95,1.92-2.29,3.39-4.01,4.36l-.02-.02c-.6.35-1.26.64-1.98.86-.27.09-.55.15-.82.22-2.46.57-4.91.22-7.4-1.03-.31-.15-.62-.33-.9-.49-.6-.33-1.12-.7-1.59-1.1-1.43-1.23-2.47-2.69-3.1-4.47-.4-1.06-.59-2.13-.62-3.21-.02-1.08.16-2.18.53-3.24.13-.49.35-1.01.6-1.5.92-1.83,2.22-3.26,3.83-4.23.68-.38,1.39-.7,2.2-.95.29-.11.62-.18.92-.24,2.4-.55,4.84-.2,7.29,1.03.37.16.71.37,1.03.57.57.33,1.08.7,1.52,1.12,1.41,1.17,2.44,2.66,3.06,4.4.38,1.12.6,2.22.59,3.32.02,1.14-.16,2.27-.6,3.37l.02.02Z"/>
</svg>